<svg width="63" height="16" viewBox="0 0 63 16" fill="none" xmlns="http://www.w3.org/2000/svg">
<path d="M30.3403 12C30.2043 12 30.1043 11.968 30.0403 11.904C29.9763 11.84 29.9443 11.74 29.9443 11.604V3.996C29.9443 3.86 29.9763 3.76 30.0403 3.696C30.1043 3.632 30.2043 3.6 30.3403 3.6H32.8003C33.9523 3.6 34.8643 3.944 35.5363 4.632C36.2083 5.312 36.5443 6.368 36.5443 7.8C36.5443 9.232 36.2083 10.292 35.5363 10.98C34.8643 11.66 33.9523 12 32.8003 12H30.3403ZM32.7403 10.896C33.5003 10.896 34.1043 10.644 34.5523 10.14C35.0003 9.628 35.2243 8.848 35.2243 7.8C35.2243 6.752 35.0003 5.976 34.5523 5.472C34.1043 4.96 33.5003 4.704 32.7403 4.704H31.2283V10.896H32.7403ZM38.7321 12.024C38.3641 12.024 38.1801 11.924 38.1801 11.724V6C38.1801 5.8 38.3641 5.7 38.7321 5.7H38.8521C39.2201 5.7 39.4041 5.8 39.4041 6V11.724C39.4041 11.924 39.2201 12.024 38.8521 12.024H38.7321ZM38.8041 4.932C38.3801 4.932 38.1681 4.832 38.1681 4.632V3.852C38.1681 3.652 38.3801 3.552 38.8041 3.552C39.2201 3.552 39.4281 3.652 39.4281 3.852V4.632C39.4281 4.832 39.2201 4.932 38.8041 4.932ZM41.9078 12.024C41.5398 12.024 41.3558 11.924 41.3558 11.724V7.632C41.3558 7.104 41.3318 6.72 41.2838 6.48C41.2358 6.24 41.2118 6.104 41.2118 6.072C41.2118 5.96 41.3118 5.88 41.5118 5.832C41.7118 5.784 41.8958 5.76 42.0638 5.76C42.1838 5.76 42.2678 5.816 42.3158 5.928C42.3718 6.04 42.4118 6.16 42.4358 6.288C42.4678 6.416 42.4878 6.504 42.4958 6.552C42.9038 5.944 43.3598 5.64 43.8638 5.64C44.1118 5.64 44.2878 5.684 44.3918 5.772C44.5038 5.86 44.5598 5.992 44.5598 6.168C44.5598 6.312 44.5318 6.472 44.4758 6.648C44.4198 6.824 44.3558 6.912 44.2838 6.912C44.2358 6.912 44.1518 6.892 44.0318 6.852C43.9198 6.812 43.7918 6.792 43.6478 6.792C43.3998 6.792 43.1798 6.876 42.9878 7.044C42.8038 7.204 42.6678 7.352 42.5798 7.488V11.724C42.5798 11.924 42.3998 12.024 42.0398 12.024H41.9078ZM48.144 12.084C46.144 12.084 45.144 11.024 45.144 8.904C45.144 7.824 45.388 7.012 45.876 6.468C46.364 5.916 47.064 5.64 47.976 5.64C48.816 5.64 49.444 5.912 49.86 6.456C50.276 7 50.484 7.772 50.484 8.772C50.484 8.852 50.424 8.964 50.304 9.108C50.192 9.252 50.1 9.324 50.028 9.324H46.44C46.488 9.932 46.652 10.376 46.932 10.656C47.212 10.928 47.62 11.064 48.156 11.064C48.46 11.064 48.724 11.028 48.948 10.956C49.18 10.884 49.376 10.808 49.536 10.728C49.704 10.64 49.8 10.596 49.824 10.596C49.912 10.596 50.012 10.688 50.124 10.872C50.244 11.056 50.304 11.192 50.304 11.28C50.304 11.408 50.196 11.536 49.98 11.664C49.772 11.784 49.5 11.884 49.164 11.964C48.828 12.044 48.488 12.084 48.144 12.084ZM49.224 8.364C49.224 7.812 49.116 7.392 48.9 7.104C48.692 6.808 48.376 6.66 47.952 6.66C47.048 6.66 46.544 7.228 46.44 8.364H49.224ZM54.4476 12.084C53.4396 12.084 52.6916 11.828 52.2036 11.316C51.7156 10.796 51.4716 9.976 51.4716 8.856C51.4716 7.728 51.7356 6.912 52.2636 6.408C52.7996 5.896 53.5076 5.64 54.3876 5.64C54.8516 5.64 55.2756 5.704 55.6596 5.832C56.0516 5.952 56.2476 6.1 56.2476 6.276C56.2476 6.388 56.1916 6.54 56.0796 6.732C55.9676 6.916 55.8676 7.008 55.7796 7.008C55.7716 7.008 55.7196 6.988 55.6236 6.948C55.4396 6.868 55.2516 6.8 55.0596 6.744C54.8756 6.688 54.6556 6.66 54.3996 6.66C53.8636 6.66 53.4556 6.836 53.1756 7.188C52.9036 7.532 52.7676 8.076 52.7676 8.82C52.7676 9.604 52.8956 10.176 53.1516 10.536C53.4156 10.888 53.8516 11.064 54.4596 11.064C54.7396 11.064 54.9796 11.036 55.1796 10.98C55.3876 10.916 55.5836 10.84 55.7676 10.752C55.8636 10.72 55.9156 10.704 55.9236 10.704C56.0116 10.704 56.1116 10.796 56.2236 10.98C56.3356 11.156 56.3916 11.296 56.3916 11.4C56.3916 11.584 56.1796 11.744 55.7556 11.88C55.3396 12.016 54.9036 12.084 54.4476 12.084ZM59.4918 12.084C59.0518 12.084 58.6718 11.952 58.3518 11.688C58.0398 11.416 57.8838 10.968 57.8838 10.344V6.744H57.4038C57.3078 6.744 57.2358 6.712 57.1878 6.648C57.1478 6.576 57.1278 6.464 57.1278 6.312V6.156C57.1278 6.004 57.1478 5.896 57.1878 5.832C57.2358 5.76 57.3078 5.724 57.4038 5.724H57.8838L58.0398 4.5C58.0638 4.3 58.2158 4.2 58.4958 4.2H58.6878C58.9758 4.2 59.1198 4.3 59.1198 4.5V5.724H60.0078C60.1038 5.724 60.1718 5.76 60.2118 5.832C60.2598 5.896 60.2838 6.004 60.2838 6.156V6.312C60.2838 6.464 60.2598 6.576 60.2118 6.648C60.1718 6.712 60.1038 6.744 60.0078 6.744H59.1198V10.284C59.1198 10.572 59.1678 10.776 59.2638 10.896C59.3678 11.008 59.5158 11.064 59.7078 11.064C59.8198 11.064 59.9118 11.056 59.9838 11.04C60.0638 11.016 60.1238 11.004 60.1638 11.004C60.2438 11.004 60.3118 11.092 60.3678 11.268C60.4238 11.436 60.4518 11.564 60.4518 11.652C60.4518 11.94 60.1318 12.084 59.4918 12.084Z" fill="#034363"/>
<path d="M1.85699 12.2031C1.3991 12.2039 0.960257 12.3755 0.636784 12.6802C0.313311 12.9848 0.131638 13.3977 0.131638 13.8282C0.131638 14.2586 0.313311 14.6715 0.636784 14.9761C0.960257 15.2808 1.3991 15.4524 1.85699 15.4532C2.08427 15.4536 2.3094 15.4118 2.5195 15.3304C2.72961 15.2489 2.92055 15.1292 3.08141 14.9783C3.24228 14.8274 3.3699 14.6481 3.45697 14.4507C3.54405 14.2534 3.58887 14.0418 3.58887 13.8282C3.58887 13.6145 3.54405 13.4029 3.45697 13.2056C3.3699 13.0082 3.24228 12.8289 3.08141 12.678C2.92055 12.5271 2.72961 12.4074 2.5195 12.3259C2.3094 12.2445 2.08427 12.2027 1.85699 12.2031Z" fill="#034363"/>
<path d="M6.30921 13C6.08095 13.001 5.8624 13.0869 5.70137 13.239C5.54033 13.3911 5.44993 13.5969 5.44993 13.8115C5.44993 14.0261 5.54033 14.232 5.70137 14.384C5.8624 14.5361 6.08095 14.6221 6.30921 14.6231C6.42291 14.6235 6.5356 14.6029 6.64079 14.5624C6.74599 14.5218 6.84162 14.4621 6.9222 14.3867C7.00279 14.3113 7.06673 14.2217 7.11036 14.123C7.154 14.0243 7.17646 13.9184 7.17646 13.8115C7.17646 13.7046 7.154 13.5988 7.11036 13.5001C7.06673 13.4014 7.00279 13.3118 6.9222 13.2364C6.84162 13.161 6.74599 13.1013 6.64079 13.0607C6.5356 13.0201 6.42291 12.9995 6.30921 13Z" fill="#034363"/>
<path d="M12.6917 13C12.4634 13.001 12.2449 13.0869 12.0838 13.239C11.9228 13.3911 11.8324 13.5969 11.8324 13.8115C11.8324 14.0261 11.9228 14.232 12.0838 14.384C12.2449 14.5361 12.4634 14.6221 12.6917 14.6231C12.8054 14.6235 12.9181 14.6029 13.0233 14.5624C13.1285 14.5218 13.2241 14.4621 13.3047 14.3867C13.3853 14.3113 13.4492 14.2217 13.4928 14.123C13.5365 14.0243 13.5589 13.9184 13.5589 13.8115C13.5589 13.7046 13.5365 13.5988 13.4928 13.5001C13.4492 13.4014 13.3853 13.3118 13.3047 13.2364C13.2241 13.161 13.1285 13.1013 13.0233 13.0607C12.9181 13.0201 12.8054 12.9995 12.6917 13Z" fill="#034363"/>
<path d="M9.50044 13C9.27218 13.001 9.05363 13.0869 8.8926 13.239C8.73156 13.3911 8.64116 13.5969 8.64116 13.8115C8.64116 14.0261 8.73156 14.232 8.8926 14.384C9.05363 14.5361 9.27218 14.6221 9.50044 14.6231C9.61414 14.6235 9.72683 14.6029 9.83202 14.5624C9.93722 14.5218 10.0329 14.4621 10.1134 14.3867C10.194 14.3113 10.258 14.2217 10.3016 14.123C10.3452 14.0243 10.3677 13.9184 10.3677 13.8115C10.3677 13.7046 10.3452 13.5988 10.3016 13.5001C10.258 13.4014 10.194 13.3118 10.1134 13.2364C10.0329 13.161 9.93722 13.1013 9.83202 13.0607C9.72683 13.0201 9.61414 12.9995 9.50044 13Z" fill="#034363"/>
<path d="M16.7489 12.2031C16.2911 12.204 15.8522 12.3755 15.5288 12.6802C15.2053 12.9848 15.0236 13.3977 15.0236 13.8281C15.0236 14.2586 15.2053 14.6715 15.5288 14.9761C15.8522 15.2808 16.2911 15.4523 16.7489 15.4532C16.9762 15.4536 17.2014 15.4118 17.4115 15.3304C17.6216 15.2489 17.8125 15.1293 17.9734 14.9783C18.1343 14.8274 18.2619 14.6481 18.349 14.4507C18.436 14.2534 18.4809 14.0418 18.4809 13.8281C18.4809 13.6145 18.436 13.4029 18.349 13.2056C18.2619 13.0082 18.1343 12.8289 17.9734 12.678C17.8125 12.527 17.6216 12.4074 17.4115 12.3259C17.2014 12.2444 16.9762 12.2027 16.7489 12.2031Z" fill="#034363"/>
<path d="M6.69856 0C6.42493 0.00812583 6.17722 0.142588 6.03583 0.356485L6.03293 0.361279C5.99362 0.418509 5.96069 0.48747 5.93938 0.56225C5.88628 0.74855 5.91479 0.937311 6.00428 1.09505L7.53465 3.81811L5.40956 3.81176C5.3845 3.81506 5.35685 3.81367 5.3294 3.80676C5.30243 3.79997 5.27818 3.7884 5.25731 3.77337L3.73794 2.33278C3.64041 2.23633 3.51053 2.16106 3.3595 2.12301C3.29223 2.10607 3.22472 2.09765 3.15812 2.09676L2.19707 2.09269C1.92316 2.09987 1.675 2.23458 1.5343 2.44921L1.53144 2.45397C1.49386 2.50959 1.4623 2.57648 1.44166 2.64887C1.38759 2.83858 1.41873 3.03086 1.51302 3.18984L2.80063 5.4237C2.87577 5.55377 2.99041 5.6629 3.13416 5.73414L3.13915 5.73642L4.78117 6.50975C4.83107 6.53621 4.89049 6.55911 4.95386 6.57507C5.01539 6.59057 5.07718 6.59848 5.13814 6.59966L7.09208 6.59459L5.86303 9.7814C5.83889 9.82462 5.8175 9.87584 5.80205 9.93005C5.68819 10.3295 5.93928 10.7401 6.36316 10.8489H6.36327C6.43465 10.8658 6.50557 10.8745 6.57559 10.8759L7.80673 10.8582C8.04117 10.8524 8.25575 10.7577 8.40662 10.6013L8.40992 10.5975L11.6276 6.57338L14.8653 6.5849C15.3457 6.56155 15.7869 6.43248 16.1738 6.21683L16.1744 6.21635C16.5445 6.06522 16.8377 5.76523 16.9493 5.37384C16.9686 5.3062 16.9817 5.23836 16.989 5.17087L16.988 5.17821C16.9234 4.73206 16.6209 4.34525 16.1759 4.16522L16.169 4.1626L16.1691 4.16288C15.9718 4.05212 15.7359 3.95758 15.4826 3.89376C15.2754 3.84157 15.0674 3.81267 14.8618 3.80532L14.8808 3.80663L12.1256 3.80025L8.50304 0.24298C8.40489 0.146028 8.27427 0.0703756 8.12236 0.0321099C8.05409 0.0149127 7.98554 0.00641965 7.91797 0.00565644L6.69856 0ZM6.57559 10.8759H6.57507L6.58171 10.8762C6.57968 10.8762 6.57762 10.876 6.57558 10.8759H6.57559ZM6.70862 0.5319L6.71012 0.531935L7.93334 0.543834L7.98584 0.557043C8.02368 0.567327 8.05681 0.585229 8.08409 0.608433L11.3028 3.80459L10.3813 3.79993L8.19808 3.80014L6.52176 0.817753C6.50012 0.777804 6.49349 0.730225 6.50687 0.683278C6.5119 0.665635 6.51943 0.649283 6.52899 0.634406L6.52973 0.633234C6.56624 0.571002 6.6347 0.532686 6.70862 0.531903L6.70862 0.5319ZM2.19872 2.65436H2.20019L3.16124 2.65843C3.18547 2.65477 3.21224 2.65583 3.23883 2.66253C3.26498 2.66912 3.28833 2.68054 3.30821 2.69547L4.83282 4.13741C4.92664 4.22458 5.04922 4.29291 5.19046 4.32849C5.26085 4.34621 5.33155 4.35459 5.40112 4.35466L14.8591 4.35677C15.0059 4.36257 15.1697 4.38595 15.3329 4.42706C15.5426 4.47988 15.7376 4.55849 15.9151 4.65831L15.9006 4.65083C16.2218 4.82694 16.4158 5.03452 16.418 5.20435C16.4203 5.37418 16.1967 5.56644 15.8729 5.75467L15.8786 5.73477C15.5769 5.8929 15.2371 5.98857 14.8836 6.00844L14.8665 6.00872L11.4929 6C11.3981 5.99881 11.3106 6.03942 11.2548 6.1074L11.2536 6.10899L7.97561 10.2661C7.93516 10.3023 7.8819 10.323 7.82584 10.3232H7.8243L6.6035 10.3226C6.58697 10.3228 6.56868 10.3209 6.55045 10.3163C6.4988 10.3033 6.4575 10.272 6.43239 10.2318C6.40365 10.1853 6.39384 10.1285 6.40983 10.0724C6.4162 10.05 6.42623 10.0295 6.43911 10.0112L8.07279 5.7205C8.07511 5.7144 8.07749 5.70722 8.07958 5.69991C8.11991 5.5584 8.03786 5.4132 7.89441 5.36356L7.89331 5.36328L7.86705 5.35666L7.86624 5.35648C7.71706 5.31891 7.56389 5.39643 7.51348 5.53114L7.51322 5.53201L7.31544 6.04821L5.15359 6.03259C5.1387 6.03139 5.12199 6.02862 5.1053 6.02441C5.089 6.02031 5.07338 6.01495 5.05853 6.00855L3.42374 5.23188C3.38329 5.2151 3.35248 5.18628 3.33433 5.15141L3.33422 5.15113L2.01851 2.93662C1.99395 2.89524 1.98581 2.84511 1.9999 2.79566C2.0049 2.77813 2.0124 2.76187 2.02188 2.74706H2.02192C2.06033 2.68904 2.12718 2.65411 2.19872 2.65442L2.19872 2.65436ZM6.43911 10.0111L6.43903 10.0113L6.43984 10.01C6.43958 10.0103 6.43936 10.0107 6.4391 10.0111H6.43911Z" fill="#034363"/>
</svg>
