<svg width="106" height="76" viewBox="0 0 106 76" fill="none" xmlns="http://www.w3.org/2000/svg">
<mask id="mask0" mask-type="alpha" maskUnits="userSpaceOnUse" x="0" y="0" width="106" height="76">
<ellipse cx="52.8337" cy="37.951" rx="52.8337" ry="37.951" fill="#C4C4C4"/>
</mask>
<g mask="url(#mask0)">
<circle cx="36.6962" cy="27.5915" r="8.7316" fill="#FBC8AD" stroke="black" stroke-width="2"/>
<mask id="path-3-inside-1" fill="white">
<path fill-rule="evenodd" clip-rule="evenodd" d="M57.0215 57.7723C57.0217 57.7312 57.0218 57.69 57.0218 57.6487C57.0218 46.4233 47.9218 37.3232 36.6963 37.3232C25.4709 37.3232 16.3708 46.4233 16.3708 57.6487C16.3708 57.6919 16.371 57.735 16.3712 57.7781V80.6847H57.0222V57.7723H57.0215Z"/>
</mask>
<path fill-rule="evenodd" clip-rule="evenodd" d="M57.0215 57.7723C57.0217 57.7312 57.0218 57.69 57.0218 57.6487C57.0218 46.4233 47.9218 37.3232 36.6963 37.3232C25.4709 37.3232 16.3708 46.4233 16.3708 57.6487C16.3708 57.6919 16.371 57.735 16.3712 57.7781V80.6847H57.0222V57.7723H57.0215Z" fill="#FF4F4F"/>
<path d="M57.0215 57.7723L55.0215 57.7605L55.0096 59.7723H57.0215V57.7723ZM16.3712 57.7781H18.3713L18.3712 57.7657L16.3712 57.7781ZM16.3712 80.6847H14.3712V82.6847H16.3712V80.6847ZM57.0222 80.6847V82.6847H59.0222V80.6847H57.0222ZM57.0222 57.7723H59.0222V55.7723H57.0222V57.7723ZM55.0218 57.6487C55.0218 57.686 55.0217 57.7233 55.0215 57.7605L59.0214 57.7842C59.0217 57.7391 59.0218 57.6939 59.0218 57.6487H55.0218ZM36.6963 39.3232C46.8172 39.3232 55.0218 47.5278 55.0218 57.6487H59.0218C59.0218 45.3187 49.0264 35.3232 36.6963 35.3232V39.3232ZM18.3708 57.6487C18.3708 47.5278 26.5754 39.3232 36.6963 39.3232V35.3232C24.3663 35.3232 14.3708 45.3187 14.3708 57.6487H18.3708ZM18.3712 57.7657C18.3709 57.7267 18.3708 57.6877 18.3708 57.6487H14.3708C14.3708 57.6961 14.371 57.7433 14.3713 57.7906L18.3712 57.7657ZM18.3712 80.6847V57.7781H14.3712V80.6847H18.3712ZM57.0222 78.6847H16.3712V82.6847H57.0222V78.6847ZM55.0222 57.7723V80.6847H59.0222V57.7723H55.0222ZM57.0215 59.7723H57.0222V55.7723H57.0215V59.7723Z" fill="black" mask="url(#path-3-inside-1)"/>
<circle cx="68.9717" cy="27.591" r="8.7316" fill="#FBC8AD" stroke="black" stroke-width="2"/>
<mask id="path-6-inside-2" fill="white">
<path fill-rule="evenodd" clip-rule="evenodd" d="M89.2969 57.7717C89.2972 57.7306 89.2973 57.6894 89.2973 57.6483C89.2973 46.4228 80.1973 37.3228 68.9718 37.3228C57.7463 37.3228 48.6463 46.4228 48.6463 57.6483C48.6463 57.6894 48.6464 57.7306 48.6467 57.7717H48.6465V80.6841H89.2975V57.7717H89.2969Z"/>
</mask>
<path fill-rule="evenodd" clip-rule="evenodd" d="M89.2969 57.7717C89.2972 57.7306 89.2973 57.6894 89.2973 57.6483C89.2973 46.4228 80.1973 37.3228 68.9718 37.3228C57.7463 37.3228 48.6463 46.4228 48.6463 57.6483C48.6463 57.6894 48.6464 57.7306 48.6467 57.7717H48.6465V80.6841H89.2975V57.7717H89.2969Z" fill="#44C973"/>
<path d="M89.2969 57.7717L87.297 57.7599L87.285 59.7717H89.2969V57.7717ZM48.6467 57.7717V59.7717H50.6586L50.6466 57.7598L48.6467 57.7717ZM48.6465 57.7717V55.7717H46.6465V57.7717H48.6465ZM48.6465 80.6841H46.6465V82.6841H48.6465V80.6841ZM89.2975 80.6841V82.6841H91.2975V80.6841H89.2975ZM89.2975 57.7717H91.2975V55.7717H89.2975V57.7717ZM87.2973 57.6483C87.2973 57.6855 87.2972 57.7227 87.297 57.7599L91.2969 57.7836C91.2972 57.7385 91.2973 57.6934 91.2973 57.6483H87.2973ZM68.9718 39.3228C79.0927 39.3228 87.2973 47.5274 87.2973 57.6483H91.2973C91.2973 45.3182 81.3018 35.3228 68.9718 35.3228V39.3228ZM50.6463 57.6483C50.6463 47.5274 58.8509 39.3228 68.9718 39.3228V35.3228C56.6418 35.3228 46.6463 45.3182 46.6463 57.6483H50.6463ZM50.6466 57.7598C50.6464 57.7227 50.6463 57.6855 50.6463 57.6483H46.6463C46.6463 57.6934 46.6464 57.7385 46.6467 57.7836L50.6466 57.7598ZM48.6465 59.7717H48.6467V55.7717H48.6465V59.7717ZM50.6465 80.6841V57.7717H46.6465V80.6841H50.6465ZM89.2975 78.6841H48.6465V82.6841H89.2975V78.6841ZM87.2975 57.7717V80.6841H91.2975V57.7717H87.2975ZM89.2969 59.7717H89.2975V55.7717H89.2969V59.7717Z" fill="black" mask="url(#path-6-inside-2)"/>
</g>
</svg>
