<svg width="18" height="19" viewBox="0 0 18 19" fill="none" xmlns="http://www.w3.org/2000/svg">
<path d="M8.12994 18.2029C10.2198 18.2029 12.196 17.5603 14.0569 16.2715C14.7044 15.812 15.2486 15.332 15.7105 14.8223H1.68518C3.39084 17.0719 5.53715 18.2029 8.12994 18.2029Z" fill="#CDCFCE"/>
<path d="M3.9657 2.07517C2.79006 2.94762 1.86005 4.08923 1.17319 5.66433C0.543048 7.09484 0.299896 8.40755 0.299896 9.88566C0.299896 11.2072 0.504044 12.1075 0.954939 13.0023H16.5562C16.8353 12.5025 17.0458 11.9663 17.1944 11.3861L12.4151 11.0182L8.83011 9.88904L8.85058 8.40001L7.05503 2.48006L6.43096 2.03668L7.00357 2.0359H9.69594L14.6906 7.58243L17.4505 7.58477V0C13.816 0 11.5714 0.0304254 10.707 0.0304254C8.21242 0.0304254 5.96845 0.573402 3.9657 2.07517Z" fill="#CDCFCE"/>
</svg>
