<svg width="18" height="19" viewBox="0 0 18 19" fill="none" xmlns="http://www.w3.org/2000/svg">
<path d="M8.39151 18.2029C10.4814 18.2029 12.4576 17.5603 14.3184 16.2715C14.966 15.812 15.5101 15.332 15.9721 14.8223H1.94675C3.6524 17.0719 5.79872 18.2029 8.39151 18.2029Z" fill="#20AC2E"/>
<path d="M4.22635 2.07517C3.05071 2.94762 2.1207 4.08923 1.43385 5.66433C0.803698 7.09484 0.560547 8.40755 0.560547 9.88566C0.560547 11.2072 0.764695 12.1075 1.21559 13.0023H16.8168C17.096 12.5025 17.3065 11.9663 17.455 11.3861L12.6758 11.0182L9.09076 9.88904L9.11123 8.40001L7.31568 2.48006L6.69162 2.03668L7.26422 2.0359H9.95659L14.9513 7.58243L17.7112 7.58477V0C14.0766 0 11.8321 0.0304254 10.9677 0.0304254C8.47307 0.0304254 6.2291 0.573402 4.22635 2.07517Z" fill="#20AC2E"/>
</svg>
