<svg width="106" height="76" viewBox="0 0 106 76" fill="none" xmlns="http://www.w3.org/2000/svg">
<mask id="mask0" mask-type="alpha" maskUnits="userSpaceOnUse" x="0" y="0" width="106" height="76">
<ellipse cx="52.8337" cy="37.951" rx="52.8337" ry="37.951" fill="#C4C4C4"/>
</mask>
<g mask="url(#mask0)">
<circle cx="35.2087" cy="27.5915" r="8.7316" fill="#FBC8AD" stroke="black" stroke-width="2"/>
<mask id="path-3-inside-1" fill="white">
<path fill-rule="evenodd" clip-rule="evenodd" d="M55.534 57.7723C55.5343 57.7312 55.5344 57.69 55.5344 57.6487C55.5344 46.4233 46.4344 37.3232 35.2089 37.3232C23.9834 37.3232 14.8834 46.4233 14.8834 57.6487C14.8834 57.69 14.8835 57.7312 14.8838 57.7723H14.8831V80.6847H55.5341V57.7723H55.534Z"/>
</mask>
<path fill-rule="evenodd" clip-rule="evenodd" d="M55.534 57.7723C55.5343 57.7312 55.5344 57.69 55.5344 57.6487C55.5344 46.4233 46.4344 37.3232 35.2089 37.3232C23.9834 37.3232 14.8834 46.4233 14.8834 57.6487C14.8834 57.69 14.8835 57.7312 14.8838 57.7723H14.8831V80.6847H55.5341V57.7723H55.534Z" fill="#FF4F4F"/>
<path d="M55.534 57.7723L53.5341 57.7605L53.5221 59.7723H55.534V57.7723ZM14.8838 57.7723V59.7723H16.8957L16.8837 57.7604L14.8838 57.7723ZM14.8831 57.7723V55.7723H12.8831V57.7723H14.8831ZM14.8831 80.6847H12.8831V82.6847H14.8831V80.6847ZM55.5341 80.6847V82.6847H57.5341V80.6847H55.5341ZM55.5341 57.7723H57.5341V55.7723H55.5341V57.7723ZM53.5344 57.6487C53.5344 57.686 53.5343 57.7233 53.5341 57.7605L57.534 57.7842C57.5343 57.7391 57.5344 57.6939 57.5344 57.6487H53.5344ZM35.2089 39.3232C45.3298 39.3232 53.5344 47.5278 53.5344 57.6487H57.5344C57.5344 45.3187 47.5389 35.3232 35.2089 35.3232V39.3232ZM16.8834 57.6487C16.8834 47.5278 25.088 39.3232 35.2089 39.3232V35.3232C22.8789 35.3232 12.8834 45.3187 12.8834 57.6487H16.8834ZM16.8837 57.7604C16.8835 57.7232 16.8834 57.686 16.8834 57.6487H12.8834C12.8834 57.6939 12.8835 57.7391 12.8838 57.7842L16.8837 57.7604ZM14.8831 59.7723H14.8838V55.7723H14.8831V59.7723ZM16.8831 80.6847V57.7723H12.8831V80.6847H16.8831ZM55.5341 78.6847H14.8831V82.6847H55.5341V78.6847ZM53.5341 57.7723V80.6847H57.5341V57.7723H53.5341ZM55.534 59.7723H55.5341V55.7723H55.534V59.7723Z" fill="black" mask="url(#path-3-inside-1)"/>
<circle cx="67.4852" cy="27.591" r="8.7316" fill="#FBC8AD" stroke="black" stroke-width="2"/>
<mask id="path-6-inside-2" fill="white">
<path fill-rule="evenodd" clip-rule="evenodd" d="M87.8108 57.8863C87.8117 57.8071 87.8122 57.7277 87.8122 57.6483C87.8122 46.4228 78.7122 37.3228 67.4867 37.3228C56.2612 37.3228 47.1612 46.4228 47.1612 57.6483C47.1612 57.6894 47.1613 57.7306 47.1616 57.7717H47.1598V80.6841H87.8108V57.8863Z"/>
</mask>
<path fill-rule="evenodd" clip-rule="evenodd" d="M87.8108 57.8863C87.8117 57.8071 87.8122 57.7277 87.8122 57.6483C87.8122 46.4228 78.7122 37.3228 67.4867 37.3228C56.2612 37.3228 47.1612 46.4228 47.1612 57.6483C47.1612 57.6894 47.1613 57.7306 47.1616 57.7717H47.1598V80.6841H87.8108V57.8863Z" fill="#44C973"/>
<path d="M87.8108 57.8863L85.811 57.8634L85.8108 57.8749V57.8863H87.8108ZM47.1616 57.7717V59.7717H49.1735L49.1615 57.7598L47.1616 57.7717ZM47.1598 57.7717V55.7717H45.1598V57.7717H47.1598ZM47.1598 80.6841H45.1598V82.6841H47.1598V80.6841ZM87.8108 80.6841V82.6841H89.8108V80.6841H87.8108ZM85.8122 57.6483C85.8122 57.72 85.8118 57.7918 85.811 57.8634L89.8107 57.9092C89.8117 57.8224 89.8122 57.7354 89.8122 57.6483H85.8122ZM67.4867 39.3228C77.6076 39.3228 85.8122 47.5274 85.8122 57.6483H89.8122C89.8122 45.3182 79.8167 35.3228 67.4867 35.3228V39.3228ZM49.1612 57.6483C49.1612 47.5274 57.3658 39.3228 67.4867 39.3228V35.3228C55.1567 35.3228 45.1612 45.3182 45.1612 57.6483H49.1612ZM49.1615 57.7598C49.1613 57.7227 49.1612 57.6855 49.1612 57.6483H45.1612C45.1612 57.6934 45.1613 57.7385 45.1616 57.7836L49.1615 57.7598ZM47.1598 59.7717H47.1616V55.7717H47.1598V59.7717ZM49.1598 80.6841V57.7717H45.1598V80.6841H49.1598ZM87.8108 78.6841H47.1598V82.6841H87.8108V78.6841ZM85.8108 57.8863V80.6841H89.8108V57.8863H85.8108Z" fill="black" mask="url(#path-6-inside-2)"/>
<circle cx="51.3466" cy="44.7852" r="5.72365" fill="#FBC8AD" stroke="black" stroke-width="2"/>
<mask id="path-9-inside-3" fill="white">
<path fill-rule="evenodd" clip-rule="evenodd" d="M65.3899 65.0973C65.3918 65.0026 65.3927 64.9077 65.3927 64.8126C65.3927 57.0568 59.1054 50.7695 51.3496 50.7695C43.5939 50.7695 37.3066 57.0568 37.3066 64.8126C37.3066 64.8409 37.3067 64.8693 37.3068 64.8976H37.3037V80.7279H65.3899V65.0973Z"/>
</mask>
<path fill-rule="evenodd" clip-rule="evenodd" d="M65.3899 65.0973C65.3918 65.0026 65.3927 64.9077 65.3927 64.8126C65.3927 57.0568 59.1054 50.7695 51.3496 50.7695C43.5939 50.7695 37.3066 57.0568 37.3066 64.8126C37.3066 64.8409 37.3067 64.8693 37.3068 64.8976H37.3037V80.7279H65.3899V65.0973Z" fill="#45CCFF"/>
<path d="M65.3899 65.0973L63.3903 65.0576L63.3899 65.0774V65.0973H65.3899ZM37.3068 64.8976V66.8976H39.3187L39.3068 64.8857L37.3068 64.8976ZM37.3037 64.8976V62.8976H35.3037V64.8976H37.3037ZM37.3037 80.7279H35.3037V82.7279H37.3037V80.7279ZM65.3899 80.7279V82.7279H67.3899V80.7279H65.3899ZM63.3927 64.8126C63.3927 64.8945 63.3919 64.9761 63.3903 65.0576L67.3895 65.1371C67.3916 65.0292 67.3927 64.921 67.3927 64.8126H63.3927ZM51.3496 52.7695C58.0009 52.7695 63.3927 58.1614 63.3927 64.8126H67.3927C67.3927 55.9523 60.21 48.7695 51.3496 48.7695V52.7695ZM39.3066 64.8126C39.3066 58.1614 44.6984 52.7695 51.3496 52.7695V48.7695C42.4893 48.7695 35.3066 55.9523 35.3066 64.8126H39.3066ZM39.3068 64.8857C39.3066 64.8614 39.3066 64.837 39.3066 64.8126H35.3066C35.3066 64.8449 35.3067 64.8772 35.3069 64.9094L39.3068 64.8857ZM37.3037 66.8976H37.3068V62.8976H37.3037V66.8976ZM39.3037 80.7279V64.8976H35.3037V80.7279H39.3037ZM65.3899 78.7279H37.3037V82.7279H65.3899V78.7279ZM63.3899 65.0973V80.7279H67.3899V65.0973H63.3899Z" fill="black" mask="url(#path-9-inside-3)"/>
</g>
</svg>
