<svg width="17" height="16" viewBox="0 0 17 16" fill="none" xmlns="http://www.w3.org/2000/svg">
<path d="M0.482544 15.0008H2.00218V13.5723H0.482544V15.0008Z" fill="#3C3F41"/>
<path d="M3.52169 15.0008H5.04132V13.5723H3.52169V15.0008Z" fill="#3C3F41"/>
<path d="M6.56022 15.0008H8.07985V13.5723H6.56022V15.0008Z" fill="#3C3F41"/>
<path d="M9.59978 15.0008H11.1194V13.5723H9.59978V15.0008Z" fill="#3C3F41"/>
<path d="M13.3987 15.7146H16.438V12.8574H13.3987V15.7146Z" fill="#3C3F41"/>
<path d="M14.5511 7.75402C14.4166 7.57133 14.2385 7.38829 14.0299 7.22691C13.8593 7.09494 13.6774 6.98441 13.4877 6.89495L13.505 6.90382L10.9227 5.79111L9.14802 1.01364C9.1002 0.883664 9.0122 0.760522 8.88713 0.663764C8.82929 0.619014 8.76702 0.582607 8.70197 0.554407L8.70739 0.556988L7.56582 0.0619106C7.30536 -0.0404164 7.01154 -0.0143485 6.7812 0.128629L6.77627 0.131961C6.71326 0.169623 6.65089 0.220791 6.59674 0.282072C6.46184 0.434741 6.40238 0.622486 6.41432 0.805752L6.60687 3.96371L4.61578 3.10418C4.59075 3.09721 4.56545 3.08481 4.54284 3.06732C4.52024 3.04984 4.50247 3.02888 4.4897 3.00599L4.49044 3.00721L3.72267 1.05141C3.67519 0.922163 3.58771 0.799707 3.46337 0.703507C3.40638 0.659414 3.34505 0.623479 3.281 0.595551L3.28636 0.598127L2.38648 0.20833C2.12619 0.105004 1.83182 0.131121 1.6018 0.275064L1.59693 0.27838C1.53627 0.315232 1.47611 0.365014 1.42369 0.42434C1.28626 0.579876 1.22767 0.772087 1.24362 0.958535L1.43173 3.56187C1.44284 3.71354 1.50058 3.86152 1.60292 3.9858L1.60656 3.98991L2.79417 5.37173C2.82891 5.41649 2.87418 5.46176 2.92635 5.50212C2.97852 5.54248 3.03456 5.57559 3.09305 5.60153L3.08806 5.59911L4.92372 6.37925L2.31531 8.86195C2.27293 8.89261 2.22948 8.93185 2.19023 8.97627C1.90099 9.30362 1.94909 9.78794 2.29712 10.0599C2.35809 10.1056 2.42272 10.1433 2.48982 10.1732L2.48371 10.1702L3.64748 10.6484C3.87008 10.7372 4.11466 10.7349 4.32767 10.6494L4.33249 10.6473L9.18916 8.18128L12.2219 9.49258C12.6833 9.66374 13.1562 9.72039 13.6177 9.67438L13.6185 9.67429C14.0347 9.68178 14.4469 9.5194 14.7303 9.19866C14.7792 9.14323 14.8225 9.08517 14.8602 9.02505L14.8559 9.03149C14.999 8.58885 14.8919 8.10609 14.5564 7.75916L14.5511 7.75402ZM7.2376 4.21342L7.02653 0.754595C7.02446 0.708588 7.03995 0.661504 7.07394 0.623031C7.08705 0.608199 7.10201 0.595654 7.11825 0.585457L7.11702 0.586288C7.17986 0.542101 7.26224 0.533547 7.3324 0.562691L7.33379 0.563316L8.47612 1.06579L8.51934 1.09922C8.55047 1.12428 8.5736 1.15464 8.58859 1.18766L8.58792 1.18633L10.1487 5.46468L9.28622 5.09019L7.2376 4.21342ZM13.5608 9.10543C13.2055 9.13195 12.8429 9.08479 12.5022 8.96137L12.486 8.95477L9.32456 7.59153C9.23612 7.55233 9.1355 7.55514 9.05214 7.59623L9.05029 7.59723L4.07628 10.1631C4.02179 10.1806 3.96237 10.1786 3.90967 10.1563L3.90823 10.1556L2.76309 9.66458C2.74742 9.65826 2.73116 9.64903 2.71616 9.63742C2.67362 9.60452 2.64918 9.55871 2.64396 9.51111C2.63822 9.4561 2.65499 9.39907 2.6956 9.35311C2.71213 9.33441 2.73131 9.319 2.75224 9.30694L2.75084 9.30783L6.24315 5.95653C6.24811 5.95177 6.2536 5.94603 6.2589 5.94003C6.36136 5.82407 6.35068 5.65548 6.23874 5.5515L6.23786 5.55073L6.21624 5.53401L6.2156 5.53351C6.09279 5.43849 5.91369 5.44938 5.80488 5.55495L5.80415 5.55564L5.38289 5.9583L3.36155 5.07536C3.34813 5.06825 3.33369 5.05895 3.31995 5.04832C3.30622 5.03769 3.29374 5.02616 3.28253 5.0139L3.28375 5.01517L2.10404 3.63265C2.07374 3.60073 2.05802 3.56142 2.05691 3.52156L1.83364 0.924549C1.82949 0.87604 1.84476 0.825951 1.88056 0.785429C1.8936 0.770679 1.90846 0.758199 1.92461 0.74803L1.92338 0.748857C1.98593 0.710069 2.06464 0.704319 2.13164 0.733351L2.13298 0.734004L3.03286 1.1238C3.05727 1.13012 3.08192 1.14187 3.10381 1.1588C3.12571 1.17574 3.14265 1.19618 3.15453 1.21855L3.15387 1.21744L3.92598 3.17659C3.9742 3.29568 4.05801 3.40876 4.17428 3.49872C4.23386 3.54481 4.29821 3.58193 4.36545 3.61025L4.36002 3.60773L13.2335 7.40874C13.3686 7.47312 13.5116 7.56077 13.646 7.66472C13.8186 7.79829 13.9657 7.95006 14.0867 8.11458L14.0765 8.10177C14.2974 8.39526 14.3847 8.66706 14.3092 8.82657C14.2338 8.98609 13.9362 9.07585 13.5465 9.12161L13.5608 9.10543Z" fill="#3C3F41"/>
</svg>
