<svg width="106" height="76" viewBox="0 0 106 76" fill="none" xmlns="http://www.w3.org/2000/svg">
<mask id="mask0" mask-type="alpha" maskUnits="userSpaceOnUse" x="0" y="0" width="106" height="76">
<ellipse cx="52.8337" cy="37.951" rx="52.8337" ry="37.951" fill="#C4C4C4"/>
</mask>
<g mask="url(#mask0)">
<circle cx="32.2312" cy="27.5905" r="8.7316" fill="#FBC8AD" stroke="black" stroke-width="2"/>
<mask id="path-3-inside-1" fill="white">
<path fill-rule="evenodd" clip-rule="evenodd" d="M52.5565 57.7712C52.5567 57.7301 52.5569 57.6889 52.5569 57.6478C52.5569 46.4223 43.4568 37.3223 32.2314 37.3223C21.0059 37.3223 11.9059 46.4223 11.9059 57.6478C11.9059 57.6889 11.906 57.7301 11.9062 57.7712H11.9061V80.6836H52.5571V57.7712H52.5565Z"/>
</mask>
<path fill-rule="evenodd" clip-rule="evenodd" d="M52.5565 57.7712C52.5567 57.7301 52.5569 57.6889 52.5569 57.6478C52.5569 46.4223 43.4568 37.3223 32.2314 37.3223C21.0059 37.3223 11.9059 46.4223 11.9059 57.6478C11.9059 57.6889 11.906 57.7301 11.9062 57.7712H11.9061V80.6836H52.5571V57.7712H52.5565Z" fill="#FF4F4F"/>
<path d="M52.5565 57.7712L50.5565 57.7593L50.5446 59.7712H52.5565V57.7712ZM11.9062 57.7712V59.7712H13.9181L13.9062 57.7593L11.9062 57.7712ZM11.9061 57.7712V55.7712H9.90614V57.7712H11.9061ZM11.9061 80.6836H9.90614V82.6836H11.9061V80.6836ZM52.5571 80.6836V82.6836H54.5571V80.6836H52.5571ZM52.5571 57.7712H54.5571V55.7712H52.5571V57.7712ZM50.5569 57.6478C50.5569 57.685 50.5567 57.7222 50.5565 57.7593L54.5565 57.7831C54.5567 57.738 54.5569 57.6929 54.5569 57.6478H50.5569ZM32.2314 39.3223C42.3523 39.3223 50.5569 47.5269 50.5569 57.6478H54.5569C54.5569 45.3177 44.5614 35.3223 32.2314 35.3223V39.3223ZM13.9059 57.6478C13.9059 47.5269 22.1105 39.3223 32.2314 39.3223V35.3223C19.9013 35.3223 9.90585 45.3177 9.90585 57.6478H13.9059ZM13.9062 57.7593C13.906 57.7222 13.9059 57.685 13.9059 57.6478H9.90585C9.90585 57.6929 9.90599 57.738 9.90626 57.7831L13.9062 57.7593ZM11.9061 59.7712H11.9062V55.7712H11.9061V59.7712ZM13.9061 80.6836V57.7712H9.90614V80.6836H13.9061ZM52.5571 78.6836H11.9061V82.6836H52.5571V78.6836ZM50.5571 57.7712V80.6836H54.5571V57.7712H50.5571ZM52.5565 59.7712H52.5571V55.7712H52.5565V59.7712Z" fill="black" mask="url(#path-3-inside-1)"/>
<circle cx="78.3671" cy="27.5905" r="8.7316" fill="#FBC8AD" stroke="black" stroke-width="2"/>
<mask id="path-6-inside-2" fill="white">
<path fill-rule="evenodd" clip-rule="evenodd" d="M98.6926 57.8203C98.693 57.7629 98.6933 57.7053 98.6933 57.6478C98.6933 46.4223 89.5932 37.3223 78.3678 37.3223C67.1423 37.3223 58.0423 46.4223 58.0423 57.6478C58.0423 57.6889 58.0424 57.7301 58.0426 57.7712H58.0415V80.6836H98.6926V57.8203Z"/>
</mask>
<path fill-rule="evenodd" clip-rule="evenodd" d="M98.6926 57.8203C98.693 57.7629 98.6933 57.7053 98.6933 57.6478C98.6933 46.4223 89.5932 37.3223 78.3678 37.3223C67.1423 37.3223 58.0423 46.4223 58.0423 57.6478C58.0423 57.6889 58.0424 57.7301 58.0426 57.7712H58.0415V80.6836H98.6926V57.8203Z" fill="#44C973"/>
<path d="M98.6926 57.8203L96.6926 57.8037L96.6926 57.812V57.8203H98.6926ZM58.0426 57.7712V59.7712H60.0546L60.0426 57.7593L58.0426 57.7712ZM58.0415 57.7712V55.7712H56.0415V57.7712H58.0415ZM58.0415 80.6836H56.0415V82.6836H58.0415V80.6836ZM98.6926 80.6836V82.6836H100.693V80.6836H98.6926ZM96.6933 57.6478C96.6933 57.6998 96.6931 57.7518 96.6926 57.8037L100.692 57.8369C100.693 57.774 100.693 57.7109 100.693 57.6478H96.6933ZM78.3678 39.3223C88.4887 39.3223 96.6933 47.5269 96.6933 57.6478H100.693C100.693 45.3177 90.6978 35.3223 78.3678 35.3223V39.3223ZM60.0423 57.6478C60.0423 47.5269 68.2469 39.3223 78.3678 39.3223V35.3223C66.0377 35.3223 56.0423 45.3177 56.0423 57.6478H60.0423ZM60.0426 57.7593C60.0424 57.7222 60.0423 57.685 60.0423 57.6478H56.0423C56.0423 57.6929 56.0424 57.738 56.0427 57.7831L60.0426 57.7593ZM58.0415 59.7712H58.0426V55.7712H58.0415V59.7712ZM60.0415 80.6836V57.7712H56.0415V80.6836H60.0415ZM98.6926 78.6836H58.0415V82.6836H98.6926V78.6836ZM96.6926 57.8203V80.6836H100.693V57.8203H96.6926Z" fill="black" mask="url(#path-6-inside-2)"/>
<circle cx="54.5543" cy="27.5905" r="8.7316" fill="#FBC8AD" stroke="black" stroke-width="2"/>
<mask id="path-9-inside-3" fill="white">
<path fill-rule="evenodd" clip-rule="evenodd" d="M74.88 57.888C74.8809 57.8079 74.8814 57.7276 74.8814 57.6473C74.8814 46.4218 65.7813 37.3218 54.5559 37.3218C43.3304 37.3218 34.2304 46.4218 34.2304 57.6473C34.2304 57.6885 34.2305 57.7296 34.2307 57.7707H34.229V80.6831H74.88V57.888Z"/>
</mask>
<path fill-rule="evenodd" clip-rule="evenodd" d="M74.88 57.888C74.8809 57.8079 74.8814 57.7276 74.8814 57.6473C74.8814 46.4218 65.7813 37.3218 54.5559 37.3218C43.3304 37.3218 34.2304 46.4218 34.2304 57.6473C34.2304 57.6885 34.2305 57.7296 34.2307 57.7707H34.229V80.6831H74.88V57.888Z" fill="#F1DD24"/>
<path d="M74.88 57.888L72.8801 57.8648L72.88 57.8764V57.888H74.88ZM34.2307 57.7707V59.7707H36.2426L36.2307 57.7588L34.2307 57.7707ZM34.229 57.7707V55.7707H32.229V57.7707H34.229ZM34.229 80.6831H32.229V82.6831H34.229V80.6831ZM74.88 80.6831V82.6831H76.88V80.6831H74.88ZM72.8814 57.6473C72.8814 57.7199 72.8809 57.7924 72.8801 57.8648L76.8798 57.9112C76.8808 57.8233 76.8814 57.7354 76.8814 57.6473H72.8814ZM54.5559 39.3218C64.6768 39.3218 72.8814 47.5264 72.8814 57.6473H76.8814C76.8814 45.3172 66.8859 35.3218 54.5559 35.3218V39.3218ZM36.2304 57.6473C36.2304 47.5264 44.435 39.3218 54.5559 39.3218V35.3218C42.2258 35.3218 32.2304 45.3172 32.2304 57.6473H36.2304ZM36.2307 57.7588C36.2305 57.7217 36.2304 57.6845 36.2304 57.6473H32.2304C32.2304 57.6924 32.2305 57.7375 32.2308 57.7826L36.2307 57.7588ZM34.229 59.7707H34.2307V55.7707H34.229V59.7707ZM36.229 80.6831V57.7707H32.229V80.6831H36.229ZM74.88 78.6831H34.229V82.6831H74.88V78.6831ZM72.88 57.888V80.6831H76.88V57.888H72.88Z" fill="black" mask="url(#path-9-inside-3)"/>
</g>
</svg>
