<svg width="106" height="77" viewBox="0 0 106 77" fill="none" xmlns="http://www.w3.org/2000/svg">
<mask id="mask0" mask-type="alpha" maskUnits="userSpaceOnUse" x="0" y="0" width="106" height="77">
<ellipse cx="52.906" cy="38.0696" rx="52.8337" ry="37.951" fill="#C4C4C4"/>
</mask>
<g mask="url(#mask0)">
<circle cx="54.6272" cy="27.7091" r="8.7316" fill="#FBC8AD" stroke="black" stroke-width="2"/>
<mask id="path-3-inside-1" fill="white">
<path fill-rule="evenodd" clip-rule="evenodd" d="M74.9525 58.0374C74.9536 57.9472 74.9542 57.8569 74.9542 57.7664C74.9542 46.541 65.8542 37.4409 54.6287 37.4409C43.4033 37.4409 34.3032 46.541 34.3032 57.7664C34.3032 57.8076 34.3033 57.8487 34.3036 57.8899H34.3015V80.8022H74.9525V58.0374Z"/>
</mask>
<path fill-rule="evenodd" clip-rule="evenodd" d="M74.9525 58.0374C74.9536 57.9472 74.9542 57.8569 74.9542 57.7664C74.9542 46.541 65.8542 37.4409 54.6287 37.4409C43.4033 37.4409 34.3032 46.541 34.3032 57.7664C34.3032 57.8076 34.3033 57.8487 34.3036 57.8899H34.3015V80.8022H74.9525V58.0374Z" fill="#F1DD24"/>
<path d="M74.9525 58.0374L72.9526 58.0113L72.9525 58.0244V58.0374H74.9525ZM34.3036 57.8899V59.8899H36.3155L36.3036 57.878L34.3036 57.8899ZM34.3015 57.8899V55.8899H32.3015V57.8899H34.3015ZM34.3015 80.8022H32.3015V82.8022H34.3015V80.8022ZM74.9525 80.8022V82.8022H76.9525V80.8022H74.9525ZM72.9542 57.7664C72.9542 57.8482 72.9537 57.9298 72.9526 58.0113L76.9523 58.0636C76.9536 57.9647 76.9542 57.8656 76.9542 57.7664H72.9542ZM54.6287 39.4409C64.7496 39.4409 72.9542 47.6455 72.9542 57.7664H76.9542C76.9542 45.4364 66.9588 35.4409 54.6287 35.4409V39.4409ZM36.3032 57.7664C36.3032 47.6455 44.5078 39.4409 54.6287 39.4409V35.4409C42.2987 35.4409 32.3032 45.4364 32.3032 57.7664H36.3032ZM36.3036 57.878C36.3033 57.8408 36.3032 57.8036 36.3032 57.7664H32.3032C32.3032 57.8116 32.3034 57.8567 32.3036 57.9017L36.3036 57.878ZM34.3015 59.8899H34.3036V55.8899H34.3015V59.8899ZM36.3015 80.8022V57.8899H32.3015V80.8022H36.3015ZM74.9525 78.8022H34.3015V82.8022H74.9525V78.8022ZM72.9525 58.0374V80.8022H76.9525V58.0374H72.9525Z" fill="black" mask="url(#path-3-inside-1)"/>
</g>
</svg>
